<svg width="10" height="8" viewBox="0 0 10 8" fill="none" xmlns="http://www.w3.org/2000/svg">
<path d="M8.341 0.591296C8.49948 0.440421 8.71037 0.357011 8.92917 0.358667C9.14797 0.360322 9.35758 0.446914 9.51375 0.60017C9.66993 0.753425 9.76046 0.961358 9.76624 1.18009C9.77202 1.39883 9.69261 1.61125 9.54475 1.77255L5.056 7.3863C4.97882 7.46943 4.88566 7.53615 4.7821 7.58246C4.67854 7.62877 4.5667 7.65372 4.45328 7.65582C4.33986 7.65792 4.22718 7.63713 4.12198 7.59468C4.01677 7.55224 3.92121 7.48902 3.841 7.4088L0.86425 4.43205C0.781352 4.3548 0.714862 4.26165 0.668747 4.15815C0.622631 4.05465 0.597833 3.94292 0.595834 3.82963C0.593836 3.71634 0.614676 3.60381 0.657112 3.49875C0.699548 3.39369 0.762711 3.29825 0.842832 3.21813C0.922953 3.13801 1.01839 3.07484 1.12345 3.03241C1.22851 2.98997 1.34105 2.96913 1.45434 2.97113C1.56763 2.97313 1.67936 2.99793 1.78286 3.04404C1.88635 3.09016 1.97951 3.15665 2.05675 3.23955L4.4125 5.59417L8.31962 0.616046C8.32666 0.607385 8.33417 0.599122 8.34212 0.591296H8.341Z" fill="white"/>
</svg>
