<svg width="17" height="16" viewBox="0 0 17 16" fill="none" xmlns="http://www.w3.org/2000/svg">
<path d="M13.0566 9.90814C12.8593 10.0993 12.7687 10.3758 12.8136 10.6469L13.4907 14.3941C13.5478 14.7117 13.4138 15.0331 13.148 15.2166C12.8875 15.407 12.541 15.4299 12.2569 15.2775L8.88372 13.5182C8.76644 13.4557 8.6362 13.4222 8.50292 13.4184H8.29652C8.22493 13.4291 8.15486 13.4519 8.09089 13.487L4.71696 15.2547C4.55017 15.3385 4.36129 15.3682 4.17622 15.3385C3.72534 15.2532 3.42451 14.8236 3.49838 14.3705L4.17622 10.6233C4.22115 10.3499 4.13052 10.0719 3.93326 9.87767L1.18309 7.21201C0.953086 6.98886 0.873117 6.65375 0.978219 6.35138C1.08027 6.04978 1.34075 5.82968 1.65529 5.78017L5.44049 5.23105C5.72838 5.20134 5.98123 5.02617 6.1107 4.76722L7.77863 1.34756C7.81823 1.2714 7.86926 1.20133 7.93095 1.14192L7.99949 1.08861C8.03529 1.04901 8.07642 1.01626 8.12211 0.989601L8.20513 0.959136L8.3346 0.905823H8.65524C8.94161 0.935526 9.1937 1.10689 9.32546 1.36279L11.0155 4.76722C11.1373 5.01627 11.3742 5.18916 11.6476 5.23105L15.4328 5.78017C15.7527 5.82587 16.02 6.04674 16.1259 6.35138C16.2256 6.65679 16.1396 6.9919 15.905 7.21201L13.0566 9.90814Z" fill="#F6973F"/>
</svg>
