<?xml version="1.0" standalone="no"?>
<!DOCTYPE svg PUBLIC "-//W3C//DTD SVG 20010904//EN"
 "http://www.w3.org/TR/2001/REC-SVG-20010904/DTD/svg10.dtd">
<svg version="1.0" xmlns="http://www.w3.org/2000/svg"
 width="260.000000pt" height="260.000000pt" viewBox="0 0 260.000000 260.000000"
 preserveAspectRatio="xMidYMid meet">
<metadata>
Created by potrace 1.14, written by Peter Selinger 2001-2017
</metadata>
<g transform="translate(0.000000,260.000000) scale(0.100000,-0.100000)"
fill="#000000" stroke="none">
<path d="M1200 2040 c-97 -10 -123 -15 -206 -41 -74 -23 -197 -78 -202 -91 -2
-4 -9 -8 -14 -8 -6 0 -35 -18 -64 -40 -49 -37 -54 -39 -63 -22 -6 11 -12 30
-15 43 -2 13 -9 36 -14 50 -6 15 -8 29 -6 32 12 12 -34 23 -86 22 -114 -4
-110 -3 -110 -29 0 -13 -6 -42 -14 -64 -8 -22 -12 -42 -10 -45 3 -3 1 -22 -5
-43 -5 -22 -12 -57 -16 -79 -3 -22 -7 -47 -10 -55 -2 -8 -6 -27 -9 -42 -5 -30
3 -33 73 -29 18 2 32 -1 29 -6 -2 -4 -22 -45 -45 -90 -23 -46 -39 -83 -37 -83
2 0 -2 -13 -11 -30 -9 -16 -13 -30 -10 -30 3 0 1 -9 -5 -19 -5 -11 -12 -37
-16 -58 -3 -21 -9 -54 -13 -73 -9 -41 -8 -265 2 -295 3 -11 8 -36 11 -56 5
-36 5 -37 -42 -50 -26 -7 -49 -13 -52 -12 -3 1 -13 -3 -23 -9 -10 -5 -26 -11
-35 -13 -9 -1 -33 -10 -52 -19 -30 -14 -31 -15 -8 -11 15 3 56 8 90 11 35 3
65 7 68 9 3 2 44 7 90 10 47 4 92 8 100 11 8 2 56 6 105 9 50 3 115 8 145 10
279 22 830 22 1135 0 39 -3 102 -7 140 -9 39 -3 86 -8 105 -11 19 -2 67 -7
105 -10 39 -3 77 -7 85 -10 8 -2 41 -7 74 -10 32 -3 70 -7 85 -10 21 -4 19 -2
-9 11 -19 9 -39 17 -45 18 -51 11 -165 53 -165 61 0 5 6 35 13 65 16 68 15
274 -2 355 -15 71 -56 194 -84 250 -63 126 -185 271 -298 352 -105 77 -290
158 -384 169 -5 0 -30 3 -55 7 -90 12 -146 14 -220 7z"/>
<path d="M938 804 c-2 -2 -31 -6 -63 -8 -33 -3 -76 -8 -95 -11 -19 -3 -55 -7
-80 -9 -25 -3 -58 -8 -75 -12 -16 -4 -39 -8 -50 -9 -11 -1 -48 -8 -83 -15 -69
-14 -96 -32 -29 -19 23 4 92 10 152 14 61 3 160 9 220 13 137 9 867 8 955 -2
36 -4 110 -9 166 -11 56 -3 122 -9 148 -14 26 -5 44 -6 39 -2 -10 9 -95 30
-148 36 -22 3 -47 7 -55 10 -8 2 -35 7 -60 10 -59 6 -123 14 -185 21 -53 7
-751 14 -757 8z"/>
<path d="M985 729 c-27 -5 -75 -11 -105 -15 -30 -3 -64 -10 -75 -15 -15 -7
-11 -8 15 -5 183 26 769 26 920 1 24 -4 30 -2 20 4 -8 5 -40 12 -70 15 -30 4
-82 10 -115 15 -75 11 -522 10 -590 0z"/>
</g>
</svg>
